<svg width="16" height="16" viewBox="0 0 16 16" fill="none" xmlns="http://www.w3.org/2000/svg">
<path d="M2.84005 6.76461C2.65668 8.16833 2.54742 9.58073 2.51272 10.9959C4.43192 11.7976 6.2695 12.7822 8.00005 13.9359C9.73081 12.7821 11.5686 11.7976 13.4881 10.9959C13.4533 9.58073 13.3441 8.16833 13.1607 6.76461M13.1607 6.76461C13.744 6.56861 14.3354 6.38728 14.9327 6.22195C12.7571 4.69678 10.4347 3.39254 8.00005 2.32861C5.56538 3.39276 3.24298 4.69723 1.06738 6.22261C1.6629 6.38703 2.25379 6.56777 2.83938 6.76461C4.61846 7.36275 6.34465 8.10799 8.00005 8.99261C9.65522 8.10799 11.3818 7.36274 13.1607 6.76461ZM4.50005 9.99995C4.63266 9.99995 4.75983 9.94727 4.8536 9.8535C4.94737 9.75973 5.00005 9.63256 5.00005 9.49995C5.00005 9.36734 4.94737 9.24016 4.8536 9.14639C4.75983 9.05263 4.63266 8.99995 4.50005 8.99995C4.36744 8.99995 4.24026 9.05263 4.1465 9.14639C4.05273 9.24016 4.00005 9.36734 4.00005 9.49995C4.00005 9.63256 4.05273 9.75973 4.1465 9.8535C4.24026 9.94727 4.36744 9.99995 4.50005 9.99995ZM4.50005 9.99995V7.54995C5.63121 6.84684 6.79958 6.20546 8.00005 5.62861M3.32872 13.3286C3.7007 12.9575 3.99567 12.5166 4.19669 12.0312C4.39771 11.5457 4.5008 11.0254 4.50005 10.4999V9.49995" stroke="white" stroke-opacity="0.6" stroke-width="1.25" stroke-linecap="round" stroke-linejoin="round"/>
</svg>
