<svg width="64" height="32" viewBox="0 0 64 32" fill="none" xmlns="http://www.w3.org/2000/svg">
<path d="M53.3205 0C50.1778 8.61468 46.4405 13.1035 40.0657 14.9567C35.0442 13.1053 34.5937 8.61468 37.7291 0C34.5846 8.61103 30.8491 13.0999 24.4742 14.9567C19.4528 13.1053 18.9932 8.61468 22.1377 0C17.7565 11.9963 12.2207 15.9945 0 15.9927C12.2207 15.9927 14.8363 19.9945 10.4551 31.9927C13.5978 23.3853 17.3279 18.8965 23.7118 17.047C28.7351 18.8983 29.1929 23.389 26.0502 32.0036C29.1929 23.3963 32.9302 18.9074 39.3032 17.0579C44.3265 18.9093 44.7752 23.3999 41.6416 32.0146C46.0191 20.0164 51.5568 16.0182 63.7775 16.0219C51.5531 16.0036 48.9393 12.0036 53.3205 0Z" fill="#003119"/>
</svg>
