<svg width="12" height="16" viewBox="0 0 12 16" fill="none" xmlns="http://www.w3.org/2000/svg">
<path d="M8.5 10.5V12M3.5 7.5H3.50533V7.50533H3.5V7.5ZM3.5 9H3.50533V9.00533H3.5V9ZM3.5 10.5H3.50533V10.5053H3.5V10.5ZM3.5 12H3.50533V12.0053H3.5V12ZM5.16533 7.5H5.17V7.50533H5.16533V7.5ZM5.16533 9H5.17V9.00533H5.16533V9ZM5.16533 10.5H5.17V10.5053H5.16533V10.5ZM5.16533 12H5.17V12.0053H5.16533V12ZM6.83467 7.5H6.84V7.50533H6.83467V7.5ZM6.83467 9H6.84V9.00533H6.83467V9ZM6.83467 10.5H6.84V10.5053H6.83467V10.5ZM6.83467 12H6.84V12.0053H6.83467V12ZM8.5 7.5H8.50533V7.50533H8.5V7.5ZM8.5 9H8.50533V9.00533H8.5V9ZM3.5 4H8.5V5.5H3.5V4ZM6 1.5C4.73867 1.5 3.49467 1.57333 2.27133 1.71467C1.538 1.8 1 2.43333 1 3.17133V13C1 13.3978 1.15804 13.7794 1.43934 14.0607C1.72064 14.342 2.10218 14.5 2.5 14.5H9.5C9.89782 14.5 10.2794 14.342 10.5607 14.0607C10.842 13.7794 11 13.3978 11 13V3.17133C11 2.43267 10.4627 1.8 9.72867 1.71467C8.49095 1.57134 7.24599 1.49966 6 1.5Z" stroke="white" stroke-opacity="0.6" stroke-width="1.25" stroke-linecap="round" stroke-linejoin="round"/>
</svg>
