<svg width="15" height="14" viewBox="0 0 15 14" fill="none" xmlns="http://www.w3.org/2000/svg">
<path d="M9.49969 11.752C10.0683 11.9171 10.6576 12.0006 11.2497 12C12.202 12.0014 13.1418 11.7843 13.997 11.3653C14.0223 10.7678 13.8521 10.1783 13.5122 9.68622C13.1723 9.19412 12.6813 8.82624 12.1135 8.63834C11.5457 8.45043 10.9321 8.45275 10.3658 8.64493C9.79945 8.83711 9.31119 9.20869 8.97502 9.70333M9.49969 11.752V11.75C9.49969 11.008 9.30902 10.31 8.97502 9.70333M9.49969 11.752V11.8227C8.21668 12.5954 6.74676 13.0025 5.24902 13C3.69502 13 2.24102 12.57 0.999691 11.8227L0.999024 11.75C0.998513 10.8063 1.3121 9.88929 1.89035 9.14351C2.46859 8.39773 3.27861 7.86562 4.19268 7.63107C5.10676 7.39651 6.07291 7.47285 6.9388 7.84806C7.80469 8.22327 8.52108 8.87599 8.97502 9.70333M7.49969 3.25C7.49969 3.84674 7.26264 4.41903 6.84068 4.84099C6.41872 5.26295 5.84643 5.5 5.24969 5.5C4.65295 5.5 4.08066 5.26295 3.6587 4.84099C3.23674 4.41903 2.99969 3.84674 2.99969 3.25C2.99969 2.65326 3.23674 2.08097 3.6587 1.65901C4.08066 1.23705 4.65295 1 5.24969 1C5.84643 1 6.41872 1.23705 6.84068 1.65901C7.26264 2.08097 7.49969 2.65326 7.49969 3.25ZM12.9997 4.75C12.9997 5.21413 12.8153 5.65925 12.4871 5.98744C12.1589 6.31563 11.7138 6.5 11.2497 6.5C10.7856 6.5 10.3404 6.31563 10.0123 5.98744C9.68407 5.65925 9.49969 5.21413 9.49969 4.75C9.49969 4.28587 9.68407 3.84075 10.0123 3.51256C10.3404 3.18437 10.7856 3 11.2497 3C11.7138 3 12.1589 3.18437 12.4871 3.51256C12.8153 3.84075 12.9997 4.28587 12.9997 4.75Z" stroke="#003119" stroke-width="1.25" stroke-linecap="round" stroke-linejoin="round"/>
</svg>
