<svg width="108" height="24" viewBox="0 0 108 24" fill="none" xmlns="http://www.w3.org/2000/svg">
<path d="M30.8942 12.4812C30.9154 12.0713 30.9154 11.6604 30.8942 11.2505H7.54092C7.536 11.3526 7.53169 11.4554 7.52923 11.5582H2.63692L2.63446 11.712H0V12.0197H2.63385L2.63754 12.1735H7.52923C7.53169 12.2769 7.53538 12.3791 7.54154 12.4812H14.2462C14.2207 12.2771 14.208 12.0716 14.208 11.8658H24.0542C24.0542 12.0745 24.0418 12.28 24.016 12.4812H30.8942ZM30.8455 10.6351H23.8997C23.8457 10.4257 23.7778 10.2201 23.6966 10.0197H14.5674C14.4868 10.2191 14.4185 10.424 14.3643 10.6351H7.58892C7.6 10.5323 7.61231 10.4295 7.62585 10.3274H2.73354L2.75446 10.1772H0V9.86954H2.80308L2.83138 9.712H7.72369C7.74215 9.60923 7.76308 9.50646 7.78523 9.40431H30.6505C30.7366 9.80738 30.8025 10.2178 30.8455 10.6351ZM30.5009 8.78892H22.9748C22.7973 8.56737 22.6011 8.36149 22.3883 8.17354H15.8751C15.6628 8.36185 15.4658 8.56738 15.2886 8.78892H7.93477C7.96246 8.68615 7.992 8.58338 8.02277 8.48123H3.13046L3.18462 8.30831H0V8H3.28738L3.33538 7.86523H8.22769C8.26462 7.76185 8.304 7.65969 8.34461 7.55754H30.0905C30.2492 7.95754 30.3865 8.36923 30.5009 8.78892ZM29.8258 6.94277H8.60923C8.65723 6.83938 8.70646 6.73723 8.75754 6.63508H3.86585L3.95262 6.46523H0V6.15754H4.11938L4.19754 6.01969H9.08985C9.14954 5.91631 9.21108 5.81354 9.27385 5.712H29.1612C29.4062 6.10708 29.6289 6.51815 29.8258 6.94277ZM7.58892 13.0966H30.8462C30.8025 13.5138 30.7366 13.9249 30.6505 14.3274H23.3963C23.5102 14.1305 23.6111 13.9249 23.6972 13.712H14.5662C14.6523 13.9249 14.7526 14.1305 14.8665 14.3274H7.78461C7.76271 14.2251 7.7422 14.1225 7.72308 14.0197H2.83138C2.82136 13.9656 2.81172 13.9115 2.80246 13.8572H0V13.5495H2.75385C2.74678 13.5012 2.74001 13.4528 2.73354 13.4043H7.62585C7.61219 13.3019 7.59988 13.1993 7.58892 13.0966ZM7.93415 14.9428H30.5003C30.3865 15.3631 30.2492 15.7735 30.0905 16.1735H21.5169C21.8287 16.0005 22.1209 15.7941 22.3883 15.5582H15.8751C16.1425 15.7941 16.4346 16.0005 16.7465 16.1735H8.34461C8.30422 16.0715 8.26524 15.9689 8.22769 15.8658H3.33538L3.28246 15.7175H0V15.4098H3.18031C3.16352 15.3568 3.14711 15.3037 3.13108 15.2505H8.02277C7.992 15.1483 7.96246 15.0462 7.93415 14.9428ZM8.60923 16.7889H29.8258C29.6291 17.2121 29.4072 17.6231 29.1612 18.0197H9.27385C9.21073 17.9181 9.14919 17.8155 9.08923 17.712H4.19754C4.16677 17.6591 4.13661 17.6062 4.10708 17.5526H0V17.2449H3.94154L3.86585 17.0972H8.75815C8.70702 16.9954 8.65737 16.8928 8.60923 16.7895V16.7889ZM10.4123 19.5582C10.5028 19.6628 10.5957 19.7649 10.6905 19.8658H27.7446C28.1078 19.4788 28.4444 19.0676 28.752 18.6351H9.68308C9.75692 18.7391 9.832 18.8418 9.90954 18.9428H5.01723L5.13908 19.0997H0V19.4074H5.39077C5.43323 19.4585 5.47631 19.5083 5.52 19.5582H10.4123ZM12.4535 21.4043C12.6031 21.5108 12.7551 21.6135 12.9089 21.712H25.5262C26.0925 21.3483 26.6266 20.9365 27.1225 20.4812H11.3132C11.4271 20.5858 11.5434 20.6886 11.6615 20.7889H6.76923C6.83569 20.8455 6.90277 20.9009 6.97046 20.9551H0V21.2628H7.36738C7.43138 21.3108 7.49661 21.3582 7.56185 21.4043H12.4542H12.4535ZM16.7717 23.3022C17.5606 23.4702 18.3785 23.5582 19.2172 23.5582C21.0966 23.5582 22.872 23.1151 24.4449 22.3274H13.9895C14.2086 22.4369 14.4308 22.5397 14.6566 22.6351H9.76431C9.85169 22.672 9.93969 22.7083 10.0277 22.7434H0V23.0511H10.9077C11.9889 23.3809 13.1366 23.5582 14.3255 23.5582C15.1643 23.5582 15.9828 23.4702 16.7717 23.3022ZM9.68308 5.09662H28.752C28.4444 4.66407 28.1078 4.25287 27.7446 3.86585H10.6905C10.5957 3.96677 10.5028 4.06892 10.4117 4.17354H5.52L5.41169 4.30031H0V4.608H5.15815C5.11077 4.66769 5.064 4.728 5.01785 4.78892H9.90954C9.832 4.89046 9.75692 4.99323 9.68308 5.09662ZM11.3126 3.25046H27.1218C26.6262 2.79523 26.0923 2.38346 25.5262 2.01969H12.9089C12.7551 2.11877 12.6031 2.22154 12.4535 2.32738H7.56185C7.49415 2.376 7.42646 2.42462 7.36 2.47446H0V2.78215H6.96369C6.89846 2.83508 6.83385 2.88862 6.76985 2.94277H11.6615C11.5434 3.04308 11.4271 3.14585 11.3126 3.25046ZM13.9902 1.40431H24.4455C22.8227 0.592268 21.0325 0.1708 19.2178 0.173538C18.3785 0.173538 17.5606 0.262154 16.7717 0.430154C15.9675 0.2592 15.1477 0.17319 14.3255 0.173538C13.0123 0.173538 11.7502 0.390154 10.5717 0.788923H0V1.09662H14.6566C14.4313 1.19214 14.209 1.29475 13.9902 1.40431ZM68.4603 0C68.8646 0 69.1822 0.100923 69.4129 0.302769C69.6535 0.495385 69.7735 0.764308 69.7735 1.11138C69.7735 1.45785 69.6535 1.73169 69.4129 1.93354C69.1822 2.12615 68.8646 2.22277 68.4603 2.22277C68.0566 2.22277 67.7342 2.12615 67.4935 1.93354C67.2628 1.73169 67.1471 1.45785 67.1471 1.11138C67.1471 0.764923 67.2628 0.496 67.4935 0.302769C67.7342 0.100923 68.0566 0 68.4603 0ZM69.5858 3.56431V9.84185C69.5858 10.2462 69.6535 10.5206 69.7883 10.6646C69.9323 10.8092 70.1729 10.8812 70.5095 10.8812V11.184C70.2403 11.1708 69.971 11.1612 69.7015 11.1551C69.3314 11.1357 68.9608 11.1261 68.5901 11.1262C68.2154 11.1262 67.8351 11.136 67.4505 11.1551C67.1617 11.1614 66.8731 11.1711 66.5846 11.184V10.8812C66.9212 10.8812 67.1569 10.8092 67.2917 10.6646C67.4357 10.5206 67.5083 10.2462 67.5083 9.84185V5.296C67.5083 4.86338 67.4406 4.54523 67.3058 4.344C67.1809 4.13231 66.9403 4.02646 66.5846 4.02646V3.72308C66.8923 3.752 67.1908 3.76615 67.4794 3.76615C67.8831 3.76615 68.2585 3.752 68.6049 3.72308C68.9606 3.68492 69.288 3.632 69.5858 3.56431Z" fill="#001A0E"/>
<path fill-rule="evenodd" clip-rule="evenodd" d="M73.6474 4.8886V3.56429C73.3495 3.63198 73.0221 3.68491 72.6664 3.72306C72.3101 3.75198 71.9347 3.76614 71.5403 3.76614C71.2517 3.76614 70.9538 3.75198 70.6455 3.72306V4.02644C70.992 4.02644 71.2326 4.13229 71.3674 4.34398C71.5021 4.54583 71.5692 4.86337 71.5692 5.29598V12.512C71.5692 12.8966 71.5021 13.1563 71.3674 13.2911C71.2424 13.4258 71.0209 13.4929 70.7034 13.4929V13.7963L71.4683 13.7532C71.8194 13.7434 72.1706 13.7385 72.5218 13.7384C73.0123 13.7384 73.4744 13.7434 73.907 13.7526C74.3495 13.7723 74.696 13.7864 74.9464 13.7957V13.4929C74.5421 13.4929 74.2246 13.416 73.9938 13.2621C73.763 13.1181 73.6474 12.8197 73.6474 12.3674V10.9212C73.7741 11.0271 73.923 11.1144 74.0947 11.184C74.4024 11.3194 74.744 11.3864 75.1194 11.3864C75.6295 11.3864 76.0861 11.2948 76.4904 11.112C76.9014 10.9312 77.2628 10.6541 77.544 10.304C77.8418 9.93844 78.0683 9.49106 78.2221 8.96183C78.3858 8.4326 78.4677 7.81721 78.4677 7.11444C78.4677 6.31629 78.352 5.65229 78.1212 5.12306C77.8904 4.58398 77.5821 4.18521 77.1975 3.92552C76.8131 3.65613 76.3536 3.51466 75.8843 3.52121C75.3261 3.52121 74.8357 3.66521 74.4123 3.95383C74.0794 4.17844 73.8246 4.48983 73.6474 4.88921V4.8886ZM73.6474 5.3846V10.616C73.7274 10.7108 73.824 10.7895 73.936 10.8523C74.1187 10.9483 74.3255 10.9963 74.5569 10.9963C74.9895 10.9963 75.331 10.8523 75.5815 10.5637C75.8314 10.2652 76.0092 9.85168 76.115 9.32244C76.2307 8.78398 76.2886 8.14398 76.2886 7.40306C76.2886 6.57598 76.2357 5.92614 76.1298 5.45475C76.024 4.98337 75.8794 4.64675 75.6966 4.44491C75.5138 4.24244 75.2929 4.14152 75.0326 4.14152C74.6867 4.14152 74.3692 4.27691 74.0806 4.54583C73.8633 4.75506 73.7187 5.03506 73.6474 5.3846Z" fill="#001A0E"/>
<path d="M81.7809 3.52114C82.1852 3.52114 82.536 3.57406 82.8344 3.6799C83.1421 3.7759 83.3637 3.87252 83.4984 3.96852C83.8252 4.19006 84.0277 4.04544 84.1046 3.53529H84.4074C84.3883 3.80483 84.3735 4.13714 84.3643 4.53098C84.3544 4.91621 84.3495 5.43067 84.3495 6.0756H84.0468C83.9974 5.71477 83.9053 5.3611 83.7723 5.02206C83.6498 4.69301 83.4464 4.40011 83.1809 4.17037C82.9304 3.94883 82.6037 3.83806 82.1994 3.83806C81.9206 3.83806 81.6849 3.92052 81.4923 4.08421C81.2997 4.23806 81.2037 4.4639 81.2037 4.76237C81.2037 5.05098 81.2904 5.30575 81.4634 5.52729C81.6369 5.73898 81.8578 5.94575 82.1274 6.1476C82.4061 6.34021 82.6947 6.54698 82.9932 6.7679C83.3107 7.00852 83.5994 7.24914 83.8591 7.48975C84.108 7.70739 84.3178 7.96611 84.4794 8.25467C84.6338 8.53344 84.7107 8.86514 84.7107 9.25037C84.7107 9.68298 84.5852 10.0627 84.3354 10.3901C84.0849 10.7076 83.7532 10.9531 83.3397 11.1261C82.9354 11.2996 82.4831 11.3864 81.9834 11.3864C81.7209 11.3893 81.4591 11.3602 81.2037 11.2996C81.0036 11.2498 80.8099 11.1771 80.6264 11.083C80.5015 11.0251 80.3809 10.9722 80.2658 10.9242C80.1677 10.8702 80.0663 10.8221 79.9624 10.7802C79.8664 10.7513 79.7797 10.7845 79.7027 10.8811C79.6357 10.9771 79.5828 11.1119 79.544 11.2848H79.2412C79.2603 10.9771 79.2751 10.6018 79.2843 10.1593C79.2941 9.71683 79.2991 9.12975 79.2991 8.39929H79.6018C79.6597 8.91867 79.7655 9.38021 79.9194 9.7839C80.0732 10.179 80.28 10.4916 80.5397 10.7224C80.8092 10.9439 81.1458 11.0547 81.5501 11.0547C81.7138 11.0547 81.8726 11.0208 82.0264 10.9531C82.1803 10.8854 82.3052 10.7747 82.4018 10.6208C82.5077 10.467 82.5606 10.2701 82.5606 10.0301C82.5606 9.60606 82.4209 9.25467 82.1415 8.9759C81.8726 8.69714 81.5261 8.39375 81.1028 8.06698C80.7951 7.81652 80.5015 7.5716 80.2228 7.33098C79.9643 7.09447 79.7407 6.82241 79.5588 6.52298C79.383 6.2156 79.2933 5.86655 79.2991 5.51252C79.2991 5.0799 79.4141 4.71437 79.6449 4.4159C79.8805 4.11433 80.1954 3.88439 80.5544 3.7519C80.9447 3.59699 81.3611 3.51864 81.7809 3.52114ZM99.6954 3.6799C99.4449 3.57406 99.1181 3.52114 98.7138 3.52114C98.2612 3.51654 97.8148 3.62573 97.4154 3.83867C97.0209 4.04052 96.7083 4.38206 96.4769 4.86329V3.56483C96.1791 3.6319 95.8517 3.68483 95.496 3.72298C95.1495 3.7519 94.7741 3.76606 94.3704 3.76606C94.0818 3.76606 93.7834 3.7519 93.4757 3.72298V4.02637C93.8314 4.02637 94.072 4.13221 94.1969 4.3439C94.3317 4.54575 94.3987 4.86329 94.3987 5.2959V9.84175C94.3987 10.2461 94.3267 10.5205 94.1827 10.6645C94.048 10.8091 93.8123 10.8811 93.4757 10.8811V11.1839C93.7642 11.171 94.0528 11.1613 94.3415 11.155C94.7164 11.136 95.0917 11.1263 95.4671 11.1261C95.8037 11.1261 96.1311 11.1359 96.448 11.155C96.7754 11.1648 97.016 11.1747 97.1698 11.1839V10.8811C96.92 10.8811 96.7415 10.8091 96.6357 10.6645C96.5298 10.5205 96.4769 10.2461 96.4769 9.84175V5.83006C96.4769 5.51252 96.5397 5.22883 96.6646 4.97837C96.7994 4.71867 96.9723 4.51683 97.184 4.37283C97.3872 4.23117 97.6292 4.15554 97.8769 4.15621C98.0984 4.15621 98.2615 4.20914 98.3674 4.31498C98.4831 4.41098 98.56 4.55067 98.5988 4.73344C98.6369 4.90637 98.656 5.11314 98.656 5.35375V9.84175C98.656 10.2461 98.6031 10.5205 98.4972 10.6645C98.4012 10.8091 98.2234 10.8811 97.9637 10.8811V11.1839C98.1366 11.1747 98.3914 11.1648 98.7286 11.155C99.4111 11.116 100.095 11.116 100.778 11.155C101.134 11.1648 101.398 11.1747 101.571 11.1839V10.8811C101.263 10.8811 101.047 10.8091 100.922 10.6645C100.797 10.5205 100.734 10.2461 100.734 9.84175V5.89406L100.734 5.84914L100.731 5.70329C100.753 5.46206 100.818 5.22665 100.922 5.0079C101.057 4.7476 101.23 4.54083 101.441 4.38698C101.653 4.23314 101.884 4.15621 102.134 4.15621C102.384 4.15621 102.567 4.20914 102.682 4.31498C102.807 4.41098 102.889 4.55067 102.928 4.73344C102.976 4.90637 103 5.11314 103 5.35375V9.84175C103 10.2461 102.947 10.5205 102.841 10.6645C102.745 10.8091 102.567 10.8811 102.307 10.8811V11.1839C102.481 11.1747 102.735 11.1648 103.072 11.155C103.413 11.1356 103.755 11.126 104.097 11.1261C104.453 11.1261 104.814 11.1359 105.179 11.155C105.545 11.1648 105.819 11.1747 106.002 11.1839V10.8811C105.665 10.8811 105.425 10.8091 105.28 10.6645C105.145 10.5205 105.078 10.2461 105.078 9.84175V5.9599C105.078 5.47867 105.044 5.09406 104.977 4.80544C104.91 4.50698 104.799 4.26698 104.645 4.08421C104.491 3.91067 104.289 3.77652 104.039 3.6799C103.789 3.57406 103.462 3.52114 103.058 3.52114C102.567 3.52114 102.105 3.62206 101.673 3.8239C101.258 4.02206 100.922 4.3999 100.664 4.95744C100.655 4.9065 100.645 4.85581 100.633 4.80544C100.566 4.50698 100.455 4.26698 100.302 4.08421C100.148 3.91067 99.9452 3.77652 99.6954 3.6799ZM92.3434 9.61098V3.56421C92.0449 3.6319 91.7181 3.68483 91.3618 3.72298C91.016 3.7519 90.6406 3.76606 90.2363 3.76606C89.9477 3.76606 89.6498 3.7519 89.3415 3.72298V4.02637C89.6978 4.02637 89.9384 4.13221 90.0634 4.3439C90.1981 4.54575 90.2652 4.86329 90.2652 5.2959V9.07683C90.2652 9.39437 90.1981 9.68298 90.0634 9.94267C89.9491 10.1804 89.775 10.3844 89.5581 10.5347C89.3563 10.6791 89.1134 10.755 88.8652 10.7513C88.6252 10.7513 88.4424 10.7027 88.3169 10.6067C88.1872 10.4932 88.0964 10.3419 88.0572 10.1741C88.0164 9.96489 87.997 9.75209 87.9994 9.53898V3.56421C87.7015 3.6319 87.3741 3.68483 87.0184 3.72298C86.672 3.7519 86.2966 3.76606 85.8929 3.76606C85.6043 3.76606 85.3058 3.7519 84.9981 3.72298V4.02637C85.3538 4.02637 85.5944 4.13221 85.7194 4.3439C85.8541 4.54575 85.9212 4.86329 85.9212 5.2959V8.94698C85.9212 9.41837 85.9551 9.8036 86.0228 10.1014C86.0898 10.3999 86.2055 10.6405 86.3686 10.8233C86.5132 10.987 86.7101 11.1218 86.9606 11.2276C87.2104 11.3328 87.5378 11.3864 87.9421 11.3864C88.4424 11.3864 88.8941 11.2848 89.2984 11.083C89.712 10.8713 90.0344 10.5248 90.2652 10.0442V11.3427C90.5876 11.2633 90.9158 11.2102 91.2467 11.1839C91.5932 11.155 91.968 11.1408 92.3723 11.1408C92.6707 11.1408 92.9686 11.155 93.2671 11.1839V10.8811C92.9206 10.8811 92.68 10.7802 92.5452 10.5778C92.4104 10.3661 92.3434 10.0442 92.3434 9.6116V9.61098Z" fill="#001A0E"/>
<path fill-rule="evenodd" clip-rule="evenodd" d="M64.4283 3.91073C63.8991 3.65104 63.2831 3.52119 62.5809 3.52119C61.8978 3.52119 61.2868 3.65104 60.7483 3.91073C60.2191 4.17043 59.8006 4.58889 59.4929 5.16612C59.1945 5.74335 59.0449 6.50827 59.0449 7.46089C59.0449 8.4135 59.1945 9.17781 59.4923 9.75566C59.8 10.323 60.2185 10.7366 60.7477 10.9963C61.2868 11.256 61.8978 11.3864 62.5809 11.3864C63.2831 11.3864 63.8991 11.256 64.4283 10.9963C64.9569 10.7366 65.3711 10.323 65.6689 9.75566C65.9674 9.17843 66.1163 8.4135 66.1163 7.46089C66.1163 6.50827 65.9674 5.74396 65.6689 5.16612C65.3711 4.58889 64.9569 4.17043 64.4283 3.91073ZM61.6142 4.67566C61.8738 4.09843 62.1963 3.80981 62.5809 3.80981C62.9754 3.80981 63.2978 4.09843 63.5477 4.67566C63.8074 5.24304 63.9372 6.17166 63.9372 7.46089C63.9372 8.75012 63.8074 9.67873 63.5477 10.2461C63.2978 10.8135 62.9754 11.0978 62.5809 11.0978C62.1963 11.0978 61.8738 10.8135 61.6142 10.2461C61.3545 9.67873 61.2246 8.75012 61.2246 7.46089C61.2246 6.17166 61.3538 5.24304 61.6142 4.67566ZM54.3391 13.8972C53.7422 13.8972 53.2086 13.8443 52.7372 13.7384C52.2757 13.6424 51.9102 13.4886 51.6406 13.2769C51.3809 13.0744 51.2511 12.8246 51.2511 12.5261C51.2511 12.2277 51.3852 11.9587 51.6548 11.7181C51.9243 11.4873 52.3237 11.3046 52.8529 11.1698L52.9822 11.4006C52.8169 11.5246 52.6794 11.6818 52.5785 11.8621C52.5015 12.0357 52.4628 12.2135 52.4628 12.3963C52.4628 12.8006 52.6455 13.1083 53.0117 13.3193C53.3871 13.5409 53.8917 13.6517 54.5268 13.6517C54.9594 13.6517 55.3446 13.5938 55.6812 13.4787C56.0277 13.363 56.2966 13.1895 56.4892 12.9593C56.6917 12.728 56.7926 12.4443 56.7926 12.1077C56.7926 11.819 56.6868 11.5735 56.4751 11.3717C56.2634 11.179 55.84 11.083 55.2049 11.083H54.3102C53.9163 11.083 53.5692 11.04 53.2714 10.9532C52.9822 10.867 52.7563 10.7317 52.5926 10.5489C52.4295 10.3569 52.3477 10.1163 52.3477 9.82766C52.3477 9.42335 52.5065 9.06766 52.824 8.75935C53.0726 8.51812 53.416 8.28858 53.8542 8.07135C53.5661 8.03553 53.2832 7.96635 53.0111 7.86519C52.5785 7.7015 52.2369 7.45104 51.9871 7.11443C51.7366 6.77781 51.6117 6.34519 51.6117 5.81596C51.6117 5.28673 51.7366 4.8535 51.9871 4.51689C52.2369 4.17043 52.5785 3.91996 53.0117 3.76612C53.4443 3.60304 53.9348 3.52119 54.4831 3.52119C55.032 3.52119 55.5225 3.60304 55.9551 3.76673C56.2406 3.86766 56.4855 4.01104 56.6917 4.19566C56.8142 4.01904 56.9631 3.8615 57.1385 3.72304C57.4658 3.47319 57.8172 3.34766 58.192 3.34766C58.4997 3.34766 58.7311 3.43443 58.8849 3.60796C59.0486 3.77104 59.1305 3.98766 59.1305 4.25719C59.1305 4.54581 59.0529 4.76181 58.8991 4.90643C58.7452 5.04181 58.5723 5.10889 58.3797 5.10889C58.2103 5.10664 58.047 5.04526 57.9182 4.93535C57.7828 4.81966 57.7065 4.64673 57.6874 4.41596C57.6708 4.20919 57.7286 3.95319 57.8609 3.64673C57.5803 3.76612 57.3637 3.90212 57.2111 4.05535C57.096 4.16628 56.9955 4.29138 56.912 4.42766C56.9354 4.45658 56.9582 4.48673 56.9797 4.51689C57.2302 4.8535 57.3551 5.28612 57.3551 5.81535C57.3551 6.34458 57.2302 6.77781 56.9797 7.11443C56.7298 7.45104 56.3883 7.7015 55.9551 7.86519C55.5225 8.02827 55.032 8.11012 54.4831 8.11012C54.401 8.1102 54.3189 8.10836 54.2369 8.10458C54.1071 8.19258 53.9822 8.28612 53.8628 8.38458C53.7886 8.44259 53.7291 8.51718 53.689 8.60236C53.649 8.68754 53.6294 8.78094 53.632 8.87504C53.632 9.18273 53.8246 9.33658 54.2092 9.33658H55.7822C56.3114 9.33658 56.7828 9.39935 57.1963 9.52427C57.6197 9.64981 57.9514 9.85658 58.192 10.1452C58.4425 10.424 58.5674 10.7895 58.5674 11.2418C58.5674 11.7132 58.4135 12.1507 58.1058 12.555C57.8074 12.9593 57.3458 13.2812 56.72 13.5218C56.0948 13.7723 55.3009 13.8972 54.3391 13.8972ZM54.4831 7.85043C54.7434 7.85043 54.9446 7.70643 55.0892 7.41781C55.2338 7.11935 55.3058 6.58519 55.3058 5.81596C55.3058 5.04612 55.2338 4.51689 55.0892 4.22827C54.9452 3.92981 54.7434 3.78089 54.4837 3.78089C54.2332 3.78089 54.0314 3.92981 53.8775 4.22827C53.7329 4.51689 53.6609 5.04612 53.6609 5.81596C53.6609 6.58519 53.7329 7.11935 53.8775 7.41781C54.0314 7.70643 54.2332 7.85043 54.4831 7.85043ZM49.3828 3.91073C48.8535 3.65104 48.2382 3.52119 47.536 3.52119C46.8529 3.52119 46.2418 3.65104 45.7034 3.91073C45.1742 4.17043 44.7557 4.58889 44.448 5.16612C44.1495 5.74335 44 6.50827 44 7.46089C44 8.4135 44.1495 9.17781 44.4474 9.75566C44.7551 10.323 45.1735 10.7366 45.7028 10.9963C46.2418 11.256 46.8529 11.3864 47.536 11.3864C48.2382 11.3864 48.8542 11.256 49.3828 10.9963C49.912 10.7366 50.3255 10.323 50.624 9.75566C50.9225 9.17843 51.0714 8.4135 51.0714 7.46089C51.0714 6.50827 50.9225 5.74396 50.624 5.16612C50.3262 4.58889 49.912 4.17043 49.3828 3.91073ZM46.5686 4.67566C46.8289 4.09843 47.1508 3.80981 47.536 3.80981C47.9298 3.80981 48.2523 4.09843 48.5022 4.67566C48.7625 5.24304 48.8923 6.17166 48.8923 7.46089C48.8923 8.75012 48.7625 9.67873 48.5028 10.2461C48.2523 10.8135 47.9305 11.0978 47.536 11.0978C47.1508 11.0978 46.8283 10.8135 46.5686 10.2461C46.3089 9.67873 46.1791 8.75012 46.1791 7.46089C46.1791 6.17166 46.3089 5.24304 46.5686 4.67566Z" fill="#001A0E"/>
<path d="M40.1136 0.966797V1.25603C39.7868 1.26526 39.5364 1.30341 39.3634 1.3711C39.2843 1.3979 39.2128 1.44338 39.1549 1.50369C39.0971 1.564 39.0546 1.63736 39.0311 1.71757C38.9739 1.88064 38.945 2.14095 38.945 2.49664V9.82772C38.945 10.1256 38.9641 10.3471 39.0028 10.4917C39.0508 10.6357 39.1376 10.7317 39.2625 10.7803C39.3973 10.8283 39.5948 10.8523 39.8539 10.8523H40.5616C40.8877 10.8523 41.1961 10.7754 41.4847 10.6216C41.7739 10.4677 42.033 10.2511 42.2637 9.97172C42.5071 9.66142 42.702 9.31594 42.8416 8.9471C42.9954 8.55326 43.1105 8.1151 43.1874 7.63387H43.5197C43.4908 7.96126 43.4767 8.38464 43.4767 8.90403C43.4767 9.12557 43.481 9.44741 43.4908 9.8708C43.5007 10.2942 43.529 10.7323 43.577 11.184C43.0242 11.1636 42.4711 11.154 41.9179 11.1551C41.3025 11.1459 40.7536 11.141 40.2724 11.141H39.3493C38.9739 11.141 38.5696 11.1459 38.137 11.1551C37.7037 11.1551 37.2662 11.16 36.8237 11.1699C36.3807 11.1699 35.9622 11.1748 35.5684 11.184V10.8954C35.8761 10.8763 36.1068 10.8376 36.2607 10.7803C36.4145 10.7225 36.5154 10.6068 36.5641 10.4339C36.6213 10.2603 36.6502 10.0006 36.6502 9.65418V2.49664C36.6502 2.14034 36.6213 1.88126 36.5641 1.71757C36.5451 1.63751 36.506 1.56364 36.4504 1.503C36.3948 1.44235 36.3246 1.39694 36.2465 1.3711C36.0927 1.30341 35.8662 1.26526 35.5684 1.25541V0.966797C36.328 0.994944 37.0882 1.00931 37.8484 1.00987C38.2717 1.00987 38.6853 1.00557 39.089 0.99572C39.5031 0.985874 39.8447 0.976643 40.1136 0.966797Z" fill="#001A0E"/>
<path fill-rule="evenodd" clip-rule="evenodd" d="M104.536 23.1094C104.516 23.0061 104.529 22.8713 104.578 22.7051L106.61 15.3408C106.285 15.4743 105.948 15.5783 105.604 15.6516C105.252 15.7211 104.847 15.7587 104.391 15.7661L104.318 15.9839C104.657 15.9839 104.868 16.0393 104.951 16.1501C105.034 16.2608 105.044 16.4331 104.982 16.6682L104.501 18.483C104.471 18.3954 104.419 18.3171 104.35 18.2553C104.232 18.1445 104.07 18.0891 103.862 18.0891C103.447 18.0891 103.063 18.1827 102.711 18.3691C102.356 18.5629 102.037 18.8155 101.767 19.1162C101.483 19.4209 101.242 19.7629 101.051 20.1328C100.863 20.4928 100.713 20.8717 100.605 21.2633C100.507 21.6006 100.454 21.9495 100.449 22.3008C100.449 22.6325 100.502 22.9057 100.605 23.1199C100.709 23.3273 100.85 23.483 101.03 23.5864C101.21 23.6836 101.41 23.7316 101.632 23.7316C101.97 23.7316 102.275 23.6319 102.545 23.4313C102.814 23.2239 103.066 22.9057 103.302 22.4768C103.401 22.3021 103.5 22.1057 103.598 21.8879L103.53 22.1451C103.467 22.3477 103.426 22.5562 103.406 22.7673C103.392 22.947 103.406 23.0996 103.447 23.2239C103.53 23.5624 103.786 23.7322 104.215 23.7322C104.374 23.7322 104.536 23.7008 104.702 23.6387C104.868 23.5765 105.023 23.4694 105.169 23.3168C105.321 23.1648 105.442 22.9476 105.532 22.6633L105.781 21.9064H105.584L105.418 22.3728C105.294 22.7261 105.176 22.9642 105.065 23.0885C104.961 23.2067 104.854 23.2651 104.743 23.2651C104.626 23.2651 104.557 23.2134 104.536 23.1094ZM103.983 20.4387C103.905 20.6916 103.82 20.9322 103.727 21.1593C103.554 21.6024 103.371 21.9827 103.177 22.3008C102.991 22.6116 102.807 22.8534 102.628 23.027C102.448 23.1925 102.289 23.2756 102.151 23.2756C102.019 23.2756 101.922 23.2134 101.86 23.0891C101.805 22.9574 101.777 22.7605 101.777 22.4977C101.777 22.1242 101.818 21.7439 101.902 21.3568C101.985 20.963 102.098 20.5857 102.244 20.2264C102.377 19.8891 102.544 19.5659 102.742 19.2614C102.929 18.971 103.126 18.7427 103.333 18.5765C103.547 18.4104 103.758 18.3279 103.966 18.3279C104.104 18.3279 104.215 18.3765 104.298 18.4731C104.356 18.5359 104.4 18.627 104.431 18.7476L103.983 20.4387Z" fill="#001A0E"/>
<path d="M97.6341 23.5866H96.3584L97.6027 19.1164C97.6655 18.9091 97.6858 18.7638 97.6655 18.6808C97.6445 18.5977 97.5824 18.5564 97.4784 18.5564C97.3473 18.5564 97.2261 18.6223 97.1153 18.7534C97.0045 18.8844 96.8907 19.1164 96.7732 19.4488L96.5965 19.9355H96.3996L96.6692 19.1577C96.7664 18.8808 96.887 18.6672 97.0322 18.5146C97.1775 18.3558 97.3369 18.2451 97.5098 18.1829C97.6827 18.1208 97.8587 18.0894 98.0384 18.0894C98.2599 18.0894 98.4224 18.1343 98.5258 18.2248C98.6366 18.3146 98.7061 18.4321 98.7338 18.5774C98.7687 18.7339 98.7756 18.8954 98.7541 19.0543C98.7406 19.2204 98.7129 19.3829 98.671 19.5417L98.5042 20.1921L98.5467 20.0814C98.7406 19.5903 98.927 19.1995 99.1067 18.9091C99.2938 18.6118 99.4907 18.4008 99.6981 18.2764C99.9013 18.1529 100.135 18.0882 100.373 18.0894C100.621 18.0894 100.811 18.162 100.943 18.3072C101.081 18.4524 101.15 18.6321 101.15 18.8469C101.15 19.0192 101.109 19.1823 101.026 19.3343C100.945 19.4769 100.831 19.5979 100.694 19.6869C100.563 19.77 100.411 19.8112 100.238 19.8112C100.065 19.8112 99.9264 19.7663 99.8224 19.6764C99.7258 19.5866 99.6772 19.4549 99.6772 19.2826C99.6772 19.13 99.7122 18.9921 99.7812 18.8672C99.8478 18.7456 99.9397 18.6396 100.051 18.5564C100.161 18.4666 100.283 18.4044 100.414 18.3694C100.399 18.3551 100.382 18.3446 100.362 18.3386C100.339 18.3313 100.314 18.3277 100.289 18.3281C100.137 18.3281 99.9818 18.3835 99.8224 18.4943C99.6636 18.5977 99.4975 18.7675 99.3245 19.0026C99.1516 19.2377 98.9756 19.5484 98.7959 19.9355C98.5931 20.3932 98.413 20.8607 98.2562 21.3361C98.1781 21.5663 98.0993 21.8137 98.0206 22.0789L97.6341 23.5866Z" fill="#001A0E"/>
<path fill-rule="evenodd" clip-rule="evenodd" d="M93.758 21.9839L93.7143 22.1451C93.6487 22.3794 93.6037 22.6188 93.5795 22.8608C93.5586 23.0824 93.593 23.2688 93.6829 23.4208C93.8213 23.6282 94.0564 23.7322 94.3881 23.7322C94.5475 23.7322 94.7063 23.7008 94.8656 23.6387C95.0312 23.5765 95.1869 23.4694 95.3321 23.3168C95.4773 23.1581 95.5986 22.9365 95.6952 22.6534L95.9549 21.8965H95.7573L95.6016 22.363C95.4773 22.7224 95.3567 22.9611 95.2392 23.0787C95.1217 23.1956 95.0072 23.2547 94.8964 23.2547C94.8066 23.2547 94.7481 23.227 94.7204 23.1716C94.6987 23.1011 94.6916 23.027 94.6995 22.9537C94.713 22.8658 94.7338 22.7792 94.7617 22.6947L96.1001 18.0891C95.8918 18.1389 95.6802 18.1737 95.4669 18.1931C95.2527 18.2141 95.0213 18.2276 94.7721 18.2344L94.622 18.7894C94.6157 18.6485 94.5747 18.5113 94.5026 18.3901C94.4485 18.2955 94.3697 18.2175 94.2746 18.1645C94.1795 18.1115 94.0717 18.0854 93.9629 18.0891C93.6589 18.0891 93.3549 18.1827 93.0503 18.3691C92.7267 18.5726 92.4363 18.8245 92.1893 19.1162C91.9101 19.4343 91.6666 19.782 91.4632 20.1531C91.2592 20.5253 91.0958 20.9183 90.9758 21.3254C90.8626 21.6917 90.8034 22.0725 90.7998 22.4559C90.7998 22.8436 90.8897 23.1544 91.0693 23.3894C91.249 23.6177 91.5253 23.7316 91.8989 23.7316C92.1616 23.7316 92.414 23.6559 92.6564 23.5039C92.905 23.3513 93.1401 23.099 93.3616 22.747C93.4989 22.5347 93.6306 22.2805 93.758 21.9839ZM92.8638 23.0368C92.7044 23.1821 92.5629 23.2547 92.4386 23.2547C92.3346 23.2547 92.2552 23.203 92.1998 23.099C92.1512 22.9882 92.1272 22.8054 92.1272 22.5494C92.1272 22.1827 92.1684 21.8061 92.2515 21.419C92.3346 21.0313 92.4453 20.6584 92.5838 20.299C92.729 19.939 92.8878 19.6177 93.0607 19.3341C93.2336 19.051 93.4066 18.8257 93.5795 18.6596C93.7592 18.4934 93.9284 18.411 94.0878 18.411C94.2533 18.411 94.3709 18.4941 94.4404 18.6596C94.5093 18.8097 94.5272 19.011 94.494 19.2627L94.1875 20.3962L94.2226 20.2159C94.1118 20.6584 93.9801 21.0664 93.8281 21.4399C93.6958 21.7738 93.5363 22.0964 93.3512 22.4042C93.185 22.6737 93.0226 22.8848 92.8638 23.0368ZM89.4053 22.7051C89.3567 22.8713 89.3432 23.0061 89.3641 23.1094C89.3844 23.2134 89.454 23.2651 89.5715 23.2651C89.6823 23.2651 89.7893 23.2067 89.8927 23.0891C90.0035 22.9642 90.121 22.7261 90.2453 22.3728L90.4115 21.9064H90.6084L90.3598 22.6633C90.27 22.947 90.1487 23.1648 89.9967 23.3168C89.8675 23.4582 89.7077 23.5682 89.5296 23.6387C89.3742 23.699 89.209 23.7307 89.0423 23.7322C88.614 23.7322 88.358 23.5624 88.2749 23.2239C88.2311 23.0759 88.2171 22.9207 88.2337 22.7673C88.2472 22.5876 88.2884 22.3796 88.358 22.1451L88.4263 21.8879C88.3272 22.1057 88.2281 22.3021 88.1296 22.4768C87.8946 22.9057 87.6423 23.2239 87.3727 23.4307C87.1099 23.6292 86.7888 23.7352 86.4595 23.7322C86.2386 23.7322 86.038 23.683 85.8583 23.587C85.673 23.4774 85.5248 23.3147 85.433 23.1199C85.329 22.9057 85.2773 22.6325 85.2773 22.3008C85.2773 21.9827 85.329 21.6362 85.433 21.2633C85.5364 20.883 85.6853 20.5064 85.8786 20.1328C86.0699 19.7631 86.3107 19.421 86.5943 19.1162C86.878 18.8048 87.1924 18.5562 87.5383 18.3691C87.893 18.182 88.2886 18.0857 88.6897 18.0891C88.897 18.0891 89.0595 18.1445 89.177 18.2553C89.2447 18.315 89.2958 18.3907 89.329 18.483L89.8096 16.6682C89.8724 16.4331 89.862 16.2602 89.7789 16.1494C89.6958 16.0387 89.4847 15.9833 89.1463 15.9833L89.2189 15.7661C89.626 15.7637 90.0321 15.7254 90.4324 15.6516C90.7764 15.5783 91.1132 15.4743 91.4386 15.3408L89.4053 22.7051ZM88.5549 21.1593C88.6472 20.9316 88.7327 20.6916 88.8103 20.4387L89.2589 18.7476C89.2373 18.6466 89.1914 18.5524 89.1253 18.4731C89.0846 18.4255 89.0336 18.3876 88.9761 18.3625C88.9187 18.3373 88.8563 18.3255 88.7936 18.3279C88.5863 18.3279 88.3752 18.411 88.161 18.5765C87.953 18.7427 87.7561 18.971 87.5696 19.2614C87.3721 19.5655 87.2053 19.8886 87.0718 20.2257C86.9244 20.5919 86.8099 20.9704 86.7297 21.3568C86.6478 21.7316 86.6059 22.1141 86.6047 22.4977C86.6047 22.7605 86.6324 22.9574 86.6878 23.0885C86.75 23.2134 86.8472 23.2756 86.9783 23.2756C87.1167 23.2756 87.2755 23.1925 87.4552 23.0264C87.6355 22.8541 87.8183 22.6116 88.0053 22.3002C88.2209 21.9363 88.4047 21.5546 88.5549 21.1593Z" fill="#001A0E"/>
<path d="M79.5654 23.5866H80.8411L80.9611 23.1177L80.955 23.1515C81.0867 22.6672 81.235 22.2007 81.4011 21.7509C81.5625 21.3216 81.7424 20.8995 81.9402 20.4857C82.1273 20.098 82.3137 19.7595 82.5008 19.469C82.6873 19.1786 82.867 18.954 83.0399 18.7946C83.2128 18.6284 83.3716 18.546 83.5168 18.546C83.6343 18.546 83.707 18.5872 83.7347 18.6703C83.7634 18.7645 83.767 18.8647 83.7451 18.9607C83.7244 19.0731 83.6967 19.1841 83.662 19.293L82.7187 22.1454C82.6214 22.4358 82.566 22.6844 82.5525 22.8918C82.5383 23.0992 82.5765 23.269 82.6663 23.4001C82.7359 23.5041 82.8325 23.5835 82.9568 23.6389C83.0885 23.7004 83.2442 23.7324 83.4239 23.7324C83.5894 23.7324 83.7556 23.701 83.9217 23.6389C84.0947 23.5835 84.2534 23.4795 84.3987 23.3275C84.5507 23.1755 84.6756 22.954 84.7722 22.6635L85.0313 21.9066H84.8344L84.6682 22.373C84.5371 22.733 84.4128 22.9712 84.2953 23.0887C84.1845 23.2069 84.0774 23.2654 83.9734 23.2654C83.8627 23.2654 83.7937 23.2204 83.766 23.13C83.7383 23.034 83.7556 22.8918 83.8177 22.7054L84.8344 19.6555C84.9242 19.386 84.9691 19.1337 84.9691 18.8986C84.9759 18.6567 84.9107 18.4629 84.7722 18.3177C84.6405 18.1657 84.4054 18.09 84.067 18.09C83.811 18.09 83.5654 18.1454 83.3304 18.2555C83.0953 18.3663 82.867 18.5595 82.646 18.8364C82.4245 19.106 82.1962 19.4727 81.9611 19.9355C81.8051 20.2477 81.6621 20.5661 81.5322 20.89L81.878 19.5417C81.9199 19.3755 81.9507 19.2094 81.9716 19.0438C81.9925 18.8715 81.9851 18.7152 81.9507 18.5767C81.9177 18.4338 81.8328 18.3081 81.7125 18.2241C81.595 18.1343 81.422 18.0894 81.1937 18.0894C80.9168 18.0894 80.6645 18.1657 80.4362 18.3177C80.2085 18.4697 80.0214 18.7497 79.8762 19.1577L79.6067 19.9355H79.8036L79.9802 19.4481C80.1045 19.1097 80.2184 18.8777 80.3224 18.7534C80.4331 18.6223 80.5537 18.5564 80.6854 18.5564C80.782 18.5564 80.8411 18.5841 80.862 18.6395C80.8891 18.6949 80.8965 18.7638 80.8824 18.8469C80.8669 18.9379 80.8461 19.0279 80.8202 19.1164L79.5654 23.5866Z" fill="#001A0E"/>
<path fill-rule="evenodd" clip-rule="evenodd" d="M76.9219 22.1454L76.9656 21.9841C76.8548 22.249 76.7222 22.5042 76.5693 22.7472C76.3478 23.0992 76.1127 23.3521 75.8635 23.5041C75.6216 23.6561 75.3693 23.7318 75.1065 23.7318C74.733 23.7318 74.4567 23.618 74.277 23.3897C74.0967 23.1546 74.0068 22.8438 74.0068 22.4561C74.0068 22.0967 74.0659 21.7201 74.1834 21.3257C74.3034 20.9186 74.4668 20.5255 74.6708 20.1534C74.8741 19.7821 75.1176 19.4344 75.397 19.1164C75.644 18.8248 75.9343 18.5728 76.2579 18.3694C76.5619 18.1829 76.8665 18.0894 77.1705 18.0894C77.4056 18.0894 77.5853 18.1897 77.7102 18.3909C77.7767 18.4937 77.8167 18.6266 77.8296 18.7897L77.9798 18.2346C78.2284 18.2278 78.4604 18.2143 78.6745 18.1934C78.8961 18.1724 79.1065 18.138 79.3071 18.0894L77.9693 22.6955C77.9411 22.7799 77.9204 22.8666 77.9071 22.9546C77.8993 23.0279 77.9064 23.102 77.9281 23.1724C77.9558 23.2278 78.0142 23.2555 78.1041 23.2555C78.2148 23.2555 78.3287 23.197 78.4462 23.0795C78.5638 22.962 78.685 22.7226 78.8093 22.3638L78.965 21.8967H79.1619L78.9028 22.6537C78.8062 22.9374 78.685 23.1583 78.5398 23.3183C78.4106 23.4593 78.2511 23.5691 78.0733 23.6395C77.9214 23.7004 77.7594 23.7321 77.5958 23.733C77.2641 23.733 77.029 23.629 76.8905 23.4217C76.8007 23.2697 76.7662 23.0832 76.7871 22.8617C76.8113 22.6197 76.8564 22.3796 76.9219 22.1454ZM75.6456 23.2549C75.7705 23.2549 75.9121 23.1823 76.0714 23.037C76.2302 22.885 76.3927 22.674 76.5588 22.4044C76.7244 22.1349 76.8838 21.8137 77.0358 21.4401C77.1878 21.0666 77.3194 20.6586 77.4302 20.2155L77.3951 20.3964L77.7016 19.2635C77.7342 19.0112 77.7164 18.81 77.6481 18.6604C77.5785 18.4943 77.461 18.4112 77.2948 18.4112C77.1361 18.4112 76.9668 18.4943 76.7871 18.6598C76.6142 18.826 76.4413 19.0506 76.2684 19.3343C76.0954 19.6174 75.9361 19.9392 75.7908 20.2986C75.6515 20.6628 75.5406 21.0372 75.4591 21.4186C75.3779 21.7902 75.3362 22.1693 75.3348 22.5497C75.3348 22.8057 75.3588 22.989 75.4075 23.0992C75.4628 23.2032 75.5422 23.2549 75.6456 23.2549Z" fill="#001A0E"/>
<path d="M74.7257 18.4417L74.7571 18.2343H73.5214L74.01 16.5333C73.8056 16.5837 73.5976 16.6185 73.3879 16.6373C73.1737 16.6577 72.9417 16.6718 72.6931 16.6786L72.2469 18.2343H71.3029L71.2512 18.4417H72.1879L71.1263 22.145C71.0365 22.449 71.0057 22.7223 71.0334 22.9641C71.0679 23.1992 71.1645 23.3863 71.3239 23.5241C71.4894 23.6626 71.7282 23.7321 72.0396 23.7321C72.3922 23.7321 72.6962 23.6386 72.9522 23.4515C73.2082 23.265 73.4088 22.9573 73.554 22.5284L73.7614 21.9063H73.5639L73.4088 22.3315C73.2839 22.6773 73.146 22.9192 72.9934 23.0577C72.8482 23.1961 72.7029 23.265 72.5577 23.265C72.5006 23.2669 72.4439 23.2557 72.3918 23.2322C72.3398 23.2088 72.2938 23.1737 72.2574 23.1297C72.1879 23.0404 72.1811 22.8989 72.2365 22.705L73.4617 18.4417H74.7257ZM71.2906 16.1703C71.2217 16.35 71.1282 16.6133 71.0106 16.9586C70.8999 17.297 70.7897 17.7401 70.6789 18.286H70.4716C70.4919 18.1893 70.506 18.089 70.5128 17.9857C70.526 17.8929 70.533 17.7994 70.5337 17.7057C70.5337 17.4355 70.4783 17.201 70.3676 17.0004C70.2612 16.79 70.0904 16.6191 69.8802 16.5124C69.666 16.3881 69.3891 16.326 69.0506 16.326C68.6839 16.326 68.3725 16.4226 68.1171 16.6164C67.8611 16.8029 67.7331 17.1038 67.7331 17.5186C67.7331 17.7746 67.7916 18.017 67.9091 18.2447C68.034 18.4663 68.1897 18.6841 68.3762 18.8983C68.57 19.1057 68.7737 19.3167 68.9879 19.5309C69.2026 19.7383 69.4032 19.953 69.5897 20.174C69.7762 20.3955 69.9288 20.6306 70.0463 20.8792C70.1706 21.1217 70.2328 21.3875 70.2328 21.678C70.2328 22.0447 70.1429 22.3592 69.9632 22.622C69.7879 22.8801 69.5576 23.0962 69.2888 23.2546C69.007 23.4157 68.703 23.5345 68.3866 23.6072C68.0821 23.6885 67.7683 23.7305 67.4531 23.7321C67.1417 23.7321 66.8826 23.7075 66.6752 23.6595C66.498 23.6261 66.3267 23.5666 66.1669 23.4829C66.0312 23.4084 65.8962 23.3325 65.762 23.2552C65.701 23.204 65.6305 23.1651 65.5546 23.1407C65.5063 23.1164 65.4535 23.1022 65.3996 23.0989C65.3091 23.0989 65.2334 23.1438 65.1712 23.2343C65.0897 23.3694 65.0202 23.5115 64.9639 23.6589H64.7559C64.9272 23.2371 65.0695 22.8041 65.1817 22.3629C65.2642 22.0447 65.3577 21.6472 65.4617 21.1697H65.6691C65.6401 21.307 65.6159 21.4454 65.5965 21.5844C65.5756 21.7229 65.5688 21.8613 65.5756 21.9998C65.5965 22.4835 65.7448 22.857 66.0217 23.1198C66.3054 23.3826 66.7202 23.5137 67.266 23.5137C67.7294 23.5137 68.0789 23.417 68.314 23.2238C68.5491 23.0232 68.6666 22.7327 68.6666 22.3524C68.6666 22.062 68.6112 21.7986 68.5005 21.5641C68.3959 21.3202 68.2562 21.093 68.0857 20.8897C67.9099 20.6792 67.7266 20.4752 67.5362 20.278C67.3453 20.0807 67.1618 19.8764 66.986 19.6657C66.8162 19.4562 66.6734 19.2263 66.5608 18.9813C66.4476 18.7194 66.3911 18.4365 66.3952 18.1512C66.3952 17.806 66.4679 17.505 66.6131 17.249C66.7594 16.9993 66.9572 16.7837 67.1934 16.6164C67.4356 16.4435 67.7058 16.3136 67.9922 16.2324C68.2707 16.1445 68.561 16.099 68.8531 16.0977C69.2266 16.0977 69.5343 16.1426 69.7762 16.233C70.0186 16.3223 70.226 16.43 70.3989 16.5543L70.5959 16.6786C70.658 16.7063 70.7066 16.7198 70.7411 16.7198C70.8377 16.7198 70.9522 16.537 71.0832 16.1703H71.2906Z" fill="#001A0E"/>
<path fill-rule="evenodd" clip-rule="evenodd" d="M61.2792 23.1094C61.2582 23.0061 61.2724 22.8713 61.321 22.7051L63.3536 15.3408C63.0282 15.4743 62.6915 15.5783 62.3475 15.6516C61.9948 15.7211 61.5905 15.7587 61.1339 15.7661L61.0613 15.9839C61.3998 15.9839 61.6115 16.0393 61.6939 16.1501C61.777 16.2608 61.7875 16.4331 61.7253 16.6682L61.2441 18.483C61.2139 18.3954 61.1617 18.317 61.0927 18.2553C60.9752 18.1445 60.8127 18.0891 60.6053 18.0891C60.1899 18.0891 59.8065 18.1827 59.4539 18.3691C59.0992 18.5629 58.78 18.8155 58.5099 19.1162C58.2262 19.4209 57.9854 19.7629 57.7942 20.1328C57.6059 20.4928 57.4563 20.8717 57.3481 21.2633C57.2496 21.6005 57.1972 21.9495 57.1924 22.3008C57.1924 22.6325 57.2447 22.9057 57.3481 23.1199C57.4521 23.3273 57.5936 23.483 57.7733 23.5864C57.953 23.6836 58.1536 23.7316 58.3752 23.7316C58.7136 23.7316 59.0182 23.6319 59.2878 23.4313C59.5573 23.2239 59.8096 22.9057 60.0447 22.4768C60.1432 22.3021 60.2422 22.1057 60.3413 21.8879L60.2736 22.1451C60.2107 22.3477 60.1688 22.5562 60.1487 22.7673C60.1322 22.9207 60.1462 23.0759 60.1899 23.2239C60.273 23.5624 60.5284 23.7322 60.9579 23.7322C61.1167 23.7322 61.2792 23.7008 61.4453 23.6387C61.6115 23.5765 61.7665 23.4694 61.9118 23.3168C62.0644 23.1648 62.185 22.9476 62.2748 22.6633L62.5241 21.9064H62.3272L62.161 22.3728C62.0367 22.7261 61.9192 22.9642 61.8084 23.0885C61.7044 23.2067 61.5973 23.2651 61.4865 23.2651C61.3696 23.2651 61.3001 23.2134 61.2792 23.1094ZM60.7253 20.4387C60.6478 20.6916 60.5628 20.9322 60.4699 21.1593C60.2976 21.6024 60.1142 21.9827 59.9204 22.3008C59.7339 22.6116 59.5505 22.8534 59.3708 23.027C59.1912 23.1925 59.0324 23.2756 58.8933 23.2756C58.7622 23.2756 58.6656 23.2134 58.6035 23.0891C58.5481 22.9574 58.5204 22.7605 58.5204 22.4977C58.5204 22.1242 58.5616 21.7439 58.6447 21.3568C58.7278 20.963 58.8416 20.5857 58.9868 20.2264C59.1207 19.889 59.2876 19.5658 59.4853 19.2614C59.6718 18.971 59.8687 18.7427 60.0761 18.5765C60.2902 18.4104 60.5013 18.3279 60.7087 18.3279C60.8472 18.3279 60.9579 18.3765 61.041 18.4731C61.0988 18.5359 61.1432 18.627 61.1739 18.7476L60.7253 20.4387Z" fill="#001A0E"/>
<path d="M52.7562 23.5866H51.4805L52.7359 19.1164C52.7635 19.0198 52.7839 18.93 52.7974 18.8469C52.8128 18.7774 52.8057 18.7047 52.7771 18.6395C52.7562 18.5841 52.6971 18.5564 52.6005 18.5564C52.4694 18.5564 52.3482 18.6223 52.2374 18.7534C52.134 18.8777 52.0195 19.1097 51.8952 19.4487L51.7192 19.9355H51.5223L51.7919 19.1577C51.9371 18.7497 52.1242 18.4697 52.3519 18.3177C52.5795 18.1657 52.8319 18.09 53.1088 18.09C53.3371 18.09 53.51 18.1343 53.6275 18.2241C53.7481 18.308 53.8332 18.4337 53.8663 18.5767C53.9008 18.7152 53.9075 18.8709 53.8872 19.0438C53.8661 19.2115 53.8348 19.3777 53.7937 19.5417L53.4479 20.8906C53.5943 20.5281 53.7371 20.2106 53.8768 19.9355C54.1119 19.4727 54.3395 19.106 54.5611 18.8364C54.7826 18.5595 55.0103 18.3663 55.2454 18.2555C55.4811 18.1447 55.726 18.0894 55.982 18.0894C56.3205 18.0894 56.5562 18.1657 56.6872 18.3177C56.8257 18.4629 56.8915 18.6561 56.8842 18.8986C56.8842 19.1337 56.8399 19.386 56.7494 19.6555L55.7334 22.7054C55.6706 22.8918 55.6534 23.034 55.6811 23.13C55.7088 23.2204 55.7783 23.2654 55.8891 23.2654C55.9925 23.2654 56.0995 23.2069 56.2103 23.0894C56.3279 22.9712 56.4522 22.7324 56.5839 22.373L56.75 21.9066H56.9469L56.6872 22.6635C56.5906 22.954 56.4657 23.1755 56.3143 23.3281C56.184 23.4704 56.0197 23.5774 55.8368 23.6389C55.6778 23.6999 55.5092 23.7316 55.3389 23.7324C55.1592 23.7324 55.0035 23.701 54.8725 23.6389C54.7475 23.5835 54.6509 23.5035 54.582 23.4001C54.4922 23.269 54.454 23.0992 54.4675 22.8918C54.4817 22.6844 54.5371 22.4358 54.6337 22.1454L55.5777 19.293C55.6122 19.1823 55.6399 19.0715 55.6608 18.9607C55.6825 18.8647 55.6789 18.7646 55.6503 18.6703C55.6226 18.5872 55.55 18.546 55.4325 18.546C55.2872 18.546 55.1279 18.629 54.9555 18.7946C54.7826 18.954 54.6023 19.1786 54.4159 19.469C54.2089 19.7963 54.0219 20.1358 53.8559 20.4857C53.6694 20.8734 53.4891 21.2943 53.3162 21.7509C53.15 22.2001 53.0023 22.6672 52.8706 23.1515L52.8768 23.1177L52.7562 23.5866Z" fill="#001A0E"/>
<path fill-rule="evenodd" clip-rule="evenodd" d="M48.88 21.984L48.837 22.1452C48.7716 22.3795 48.7263 22.6189 48.7016 22.8609C48.6806 23.0824 48.7151 23.2689 48.805 23.4209C48.9434 23.6283 49.1785 23.7323 49.5108 23.7323C49.6881 23.731 49.8634 23.6935 50.0257 23.6221C50.188 23.5506 50.334 23.4468 50.4548 23.3169C50.6 23.1581 50.7206 22.9366 50.8179 22.6535L51.0763 21.8966H50.8794L50.7243 22.363C50.5994 22.7224 50.4782 22.9612 50.3613 23.0787C50.2437 23.1957 50.1293 23.2547 50.0191 23.2547C49.9286 23.2547 49.8702 23.227 49.8425 23.1717C49.8208 23.1012 49.8137 23.0271 49.8216 22.9538C49.8357 22.864 49.856 22.7778 49.8843 22.6947L51.2222 18.0892C51.0141 18.139 50.8027 18.1737 50.5896 18.1932C50.3748 18.2141 50.1434 18.2277 49.8942 18.2344L49.744 18.7895C49.7376 18.6486 49.6966 18.5114 49.6246 18.3901C49.5706 18.2957 49.4919 18.2178 49.3969 18.1647C49.3019 18.1117 49.1943 18.0856 49.0856 18.0892C48.781 18.0892 48.4763 18.1827 48.1723 18.3692C47.8683 18.5563 47.5816 18.8049 47.3114 19.1163C47.032 19.4342 46.7885 19.7819 46.5853 20.1532C46.3813 20.5254 46.2179 20.9184 46.0979 21.3255C45.9847 21.6918 45.9254 22.0726 45.9219 22.456C45.9219 22.8437 46.0117 23.1544 46.1914 23.3895C46.3711 23.6178 46.648 23.7317 47.0209 23.7317C47.2837 23.7317 47.5366 23.656 47.7779 23.504C48.0271 23.3513 48.2628 23.099 48.4837 22.747C48.621 22.5347 48.7526 22.2806 48.88 21.984ZM47.9859 23.0369C47.8271 23.1821 47.685 23.2547 47.5606 23.2547C47.4566 23.2547 47.3773 23.203 47.3219 23.099C47.2739 22.9883 47.2493 22.8055 47.2493 22.5495C47.2493 22.1827 47.2911 21.8061 47.3742 21.419C47.4566 21.0313 47.5674 20.6584 47.7059 20.299C47.8511 19.939 48.0099 19.6178 48.1828 19.3341C48.3557 19.051 48.5286 18.8258 48.7016 18.6597C48.8813 18.4935 49.0505 18.411 49.2099 18.411C49.376 18.411 49.493 18.4941 49.5625 18.6597C49.6314 18.8098 49.6486 19.011 49.616 19.2627L49.3096 20.3963L49.3446 20.216C49.2339 20.6584 49.1028 21.0664 48.9508 21.44C48.7982 21.8129 48.6394 22.1347 48.4733 22.4043C48.3071 22.6738 48.1446 22.8849 47.9859 23.0369Z" fill="#001A0E"/>
<path d="M43.1478 23.5866H41.8721L43.1164 19.1164C43.1785 18.9091 43.1995 18.7638 43.1785 18.6808C43.1582 18.5977 43.0961 18.5564 42.9921 18.5564C42.861 18.5564 42.7398 18.6223 42.629 18.7534C42.5182 18.8844 42.4044 19.1164 42.2868 19.4488L42.1102 19.9355H41.9133L42.1828 19.1577C42.2801 18.8808 42.4007 18.6672 42.5459 18.5146C42.6911 18.3558 42.8505 18.2451 43.0235 18.1829C43.1958 18.1208 43.3724 18.0894 43.5527 18.0894C43.7736 18.0894 43.9361 18.1343 44.0395 18.2248C44.1495 18.313 44.2234 18.4384 44.2475 18.5774C44.2819 18.7226 44.2887 18.8814 44.2678 19.0543C44.2542 19.2204 44.2265 19.3829 44.1847 19.5417L44.0185 20.1921L44.0351 20.1472L44.0604 20.0814C44.2542 19.5903 44.4407 19.1995 44.6204 18.9091C44.8075 18.6118 45.0044 18.4008 45.2118 18.2764C45.415 18.1529 45.6484 18.0882 45.8862 18.0894C46.1348 18.0894 46.325 18.162 46.4567 18.3072C46.5945 18.4524 46.6641 18.6321 46.6641 18.8469C46.6641 19.0192 46.6222 19.1823 46.5391 19.3343C46.4587 19.4769 46.3449 19.5979 46.2075 19.6869C46.0704 19.7714 45.9118 19.8146 45.7508 19.8112C45.5785 19.8112 45.4401 19.7663 45.3361 19.6764C45.2395 19.5866 45.1908 19.4549 45.1908 19.2826C45.1908 19.13 45.2253 18.9921 45.2948 18.8672C45.3638 18.7429 45.4536 18.6395 45.5644 18.5564C45.6751 18.4666 45.7958 18.4044 45.9275 18.3694C45.9129 18.3552 45.8952 18.3447 45.8758 18.3386C45.862 18.3339 45.8478 18.3308 45.8333 18.3294C45.8231 18.3284 45.8128 18.328 45.8025 18.3281C45.6511 18.3281 45.4948 18.3835 45.3361 18.4943C45.1773 18.5977 45.0111 18.7675 44.8382 19.0026C44.6659 19.2377 44.4893 19.5484 44.309 19.9355C44.1062 20.3932 43.9263 20.8606 43.7699 21.3361C43.6918 21.5657 43.613 21.8137 43.5342 22.0789L43.1478 23.5866Z" fill="#001A0E"/>
<path fill-rule="evenodd" clip-rule="evenodd" d="M41.2076 16.6272C40.8618 16.3779 40.3085 16.2536 39.5479 16.2536C39.3129 16.2536 39.0778 16.2573 38.8421 16.2641C38.6144 16.2709 38.3516 16.2745 38.0544 16.2745H37.5356C37.3485 16.2672 37.1725 16.2641 37.0064 16.2641C36.8681 16.258 36.7298 16.251 36.5916 16.2432L36.5399 16.4505C36.8095 16.4505 36.9929 16.485 37.0895 16.5545C37.1935 16.6161 37.2415 16.7133 37.2347 16.845C37.2207 17.013 37.193 17.1795 37.1516 17.3429L35.7824 22.4875C35.7209 22.7361 35.6513 22.9232 35.575 23.0475C35.5061 23.1664 35.3953 23.2553 35.2642 23.2967C35.1325 23.3379 34.9492 23.3656 34.7141 23.3792L34.6729 23.5865C34.7898 23.5804 34.9319 23.5767 35.0975 23.5767C35.2636 23.5693 35.4402 23.5662 35.6267 23.5662C36.1487 23.5504 36.6711 23.5539 37.1929 23.5767C37.4765 23.5829 37.7362 23.5872 37.9713 23.5872C38.4205 23.5872 38.8458 23.5416 39.247 23.4518C39.6168 23.3679 39.9706 23.2245 40.2944 23.0272C40.5841 22.8546 40.8292 22.6164 41.0101 22.3318C41.1898 22.0549 41.2796 21.7305 41.2796 21.357C41.2796 20.9349 41.1073 20.5718 40.7615 20.2678C40.423 19.9632 39.8864 19.7835 39.1535 19.7281C39.6108 19.6624 40.055 19.526 40.4704 19.3238C40.8581 19.1232 41.1621 18.8776 41.3836 18.5872C41.6066 18.3114 41.7275 17.967 41.7258 17.6124C41.7258 17.1976 41.5541 16.869 41.2076 16.6272ZM37.8969 19.8635L37.2033 22.4875C37.1621 22.6598 37.1344 22.8124 37.1209 22.9435C37.1135 23.0752 37.1479 23.1755 37.2242 23.245C37.3005 23.3139 37.4421 23.3484 37.6495 23.3484C38.1405 23.3484 38.5418 23.2549 38.8525 23.0684C39.157 22.8893 39.3996 22.6216 39.5479 22.301C39.6999 21.9687 39.7756 21.5952 39.7756 21.181C39.7756 20.9244 39.7307 20.6998 39.6409 20.5065C39.5617 20.3102 39.4195 20.1459 39.2365 20.0395C39.0501 19.9219 38.8009 19.8635 38.4895 19.8635H37.8969ZM37.9436 19.6869H38.4175C38.8113 19.6869 39.1467 19.5865 39.423 19.3859C39.7067 19.1785 39.9215 18.909 40.0667 18.5773C40.2179 18.2487 40.2956 17.8911 40.2944 17.5293C40.2944 17.1835 40.2255 16.9176 40.087 16.7305C39.9559 16.5441 39.7239 16.4505 39.3916 16.4505C39.1504 16.4505 38.9775 16.4992 38.8735 16.5958C38.7701 16.6856 38.6802 16.8825 38.6039 17.1865L37.9436 19.6869Z" fill="#001A0E"/>
</svg>
