<svg width="51" height="28" viewBox="0 0 51 28" fill="none" xmlns="http://www.w3.org/2000/svg">
<g clip-path="url(#clip0_2_1291)">
<path d="M50.4732 9.95834C50.4785 9.91942 50.4785 9.88008 50.4732 9.84116C50.4782 9.80945 50.4782 9.77711 50.4732 9.74533L50.0998 7.00819C50.046 6.68072 49.902 6.37466 49.6839 6.12422L49.6199 6.04966L49.5026 5.9325L43.0389 0.37303L43.2202 0.5541C43.0719 0.376875 42.8857 0.235119 42.6753 0.139274C42.4649 0.0434283 42.2356 -0.00407169 42.0043 0.000278193H40.0418C39.7226 -0.00603549 39.4108 0.0952798 39.1565 0.287841C38.8894 0.0964397 38.5679 -0.00435735 38.2392 0.000278193H36.2766C36.0192 -0.00389175 35.7653 0.0598953 35.5405 0.1852C35.3158 0.310504 35.1282 0.492876 34.9967 0.713846C34.794 1.02946 34.7178 1.40972 34.7834 1.77888L35.0287 3.50423C34.8662 3.41223 34.6822 3.3645 34.4954 3.36579H24.9919C24.6509 3.36792 24.3178 3.46772 24.0319 3.65333C23.7555 3.82611 23.5336 4.0735 23.392 4.3669L22.656 3.73854C22.3663 3.47092 21.984 3.32587 21.5894 3.33383H6.6782C6.33602 3.34006 6.00144 3.43551 5.70762 3.61074C5.30564 3.84567 5.01104 4.22767 4.88631 4.67577L0.150564 20.4915C0.0620787 20.7521 0.0533741 21.0332 0.125566 21.2988C0.197757 21.5643 0.347575 21.8024 0.55588 21.9826C0.610158 22.0285 0.66715 22.0712 0.726542 22.1103C0.726542 22.1103 0.630532 22.0464 0.577201 21.9932L7.04088 27.5633C7.31431 27.8147 7.6718 27.9552 8.04343 27.9574H23.072C23.4152 27.9485 23.75 27.8493 24.0426 27.6698C24.2081 27.5795 24.3562 27.4605 24.4799 27.3183L24.5333 27.2438L24.6186 27.1373L24.6826 27.0201L25.3866 27.6272C25.6561 27.8686 26.0058 28.0014 26.3678 28H41.4283C41.7712 27.9886 42.1054 27.8896 42.3989 27.7124C42.5607 27.6166 42.7079 27.4982 42.8363 27.361L42.8896 27.2864L42.9749 27.1799C43.0203 27.1125 43.0596 27.0413 43.0922 26.9669C43.1271 26.9023 43.1556 26.8346 43.1775 26.7646L47.4973 12.3227V12.1949C47.5026 12.1454 47.5026 12.0954 47.4973 12.0458V11.95C47.5025 11.9182 47.5025 11.8859 47.4973 11.8541C47.5021 11.7867 47.5021 11.7191 47.4973 11.6517H48.8839C49.0046 11.6628 49.1259 11.6628 49.2465 11.6517H49.3426C49.4206 11.6285 49.4958 11.5963 49.5666 11.5559H49.6733L49.8652 11.4068L49.9505 11.3429L50.0998 11.1511V11.0873L50.2065 10.9062C50.2006 10.871 50.2006 10.8349 50.2065 10.7997C50.2009 10.7824 50.2009 10.7638 50.2065 10.7465C50.2292 10.684 50.2471 10.6199 50.2599 10.5547C50.2549 10.5337 50.2549 10.5118 50.2599 10.4908C50.2547 10.4591 50.2547 10.4267 50.2599 10.395C50.2599 10.395 50.4732 9.97962 50.4732 9.95834Z" fill="#001A0E"/>
<path d="M22.0263 4.54821C22.083 4.59934 22.1225 4.66657 22.1397 4.74084C22.1569 4.81511 22.1508 4.89284 22.1224 4.96357L17.3973 20.7687C17.3378 20.9412 17.2161 21.0855 17.056 21.1734C16.9257 21.2604 16.7749 21.3118 16.6186 21.3225H1.60081C1.47256 21.3163 1.35105 21.2633 1.25949 21.1734C1.20502 21.1231 1.1668 21.0577 1.14969 20.9857C1.13259 20.9136 1.13741 20.838 1.1635 20.7687L5.89924 4.96357C5.95381 4.78883 6.07171 4.64071 6.22989 4.54821C6.36231 4.46744 6.51237 4.41993 6.6672 4.40975H21.685C21.8123 4.41097 21.9343 4.46048 22.0263 4.54821ZM14.1868 17.5842L17.0133 8.14801H9.09909L6.28321 17.5842H14.1868ZM36.3616 4.70796C36.4128 4.76741 36.4769 4.81457 36.5489 4.84591C36.6209 4.87726 36.699 4.89199 36.7776 4.88901H38.7295C38.8038 4.88974 38.877 4.87154 38.9424 4.83613C39.0077 4.80073 39.0629 4.74928 39.1028 4.68666C39.1374 4.63774 39.1619 4.58236 39.1747 4.52381C39.1875 4.46527 39.1884 4.40476 39.1774 4.34585L38.7934 1.53416C38.7569 1.40403 38.6912 1.28387 38.6015 1.1827C38.5502 1.12324 38.4862 1.07609 38.4142 1.04474C38.3422 1.0134 38.264 0.998671 38.1855 1.00165H36.2336C36.1593 1.00092 36.086 1.01912 36.0207 1.05453C35.9554 1.08994 35.9001 1.14138 35.8603 1.20401C35.7856 1.35311 35.7536 1.44896 35.7856 1.53416L36.1803 4.34585C36.2005 4.48276 36.2641 4.60962 36.3616 4.70796ZM42.5586 1.51286C42.522 1.38273 42.4563 1.26256 42.3666 1.1614C42.3175 1.10216 42.2554 1.05502 42.1851 1.02362C42.1148 0.992224 42.0382 0.977412 41.9613 0.980345H39.9987C39.9256 0.978266 39.8533 0.995976 39.7895 1.0316C39.7256 1.06722 39.6726 1.11944 39.6361 1.1827C39.5651 1.27719 39.5344 1.39587 39.5508 1.51286L39.9454 4.32455C39.9701 4.46001 40.033 4.58562 40.1267 4.68666C40.1789 4.74495 40.2431 4.79131 40.3149 4.82256C40.3867 4.85381 40.4643 4.86921 40.5427 4.8677H42.5053C42.5782 4.86867 42.65 4.85049 42.7136 4.81497C42.7774 4.77945 42.8306 4.72787 42.8679 4.66536C42.905 4.61771 42.9309 4.56236 42.9439 4.50339C42.9568 4.44442 42.9563 4.38332 42.9426 4.32455L42.5586 1.51286ZM34.6443 5.77299L34.4523 4.38845H24.9915C24.843 4.39662 24.6993 4.44444 24.5755 4.5269C24.497 4.56968 24.4286 4.62897 24.3752 4.70068C24.3219 4.77239 24.2847 4.85481 24.2663 4.94227L23.4769 7.58353C23.4454 7.64954 23.4347 7.7236 23.4461 7.79584C23.4576 7.86808 23.4906 7.93514 23.5409 7.98827C23.6309 8.07269 23.7483 8.1219 23.8716 8.12673H35.3697L32.5431 17.5629H21.0771C20.9292 17.5663 20.7852 17.6105 20.6611 17.6907C20.5103 17.7864 20.4001 17.9343 20.3518 18.1061L19.5518 20.7474C19.5257 20.8151 19.5189 20.8888 19.532 20.9602C19.5453 21.0316 19.5779 21.098 19.6265 21.152C19.7136 21.2421 19.8319 21.2955 19.9571 21.3011H35.0176C35.1734 21.2878 35.3235 21.2366 35.4549 21.152C35.6124 21.0637 35.7306 20.9192 35.7856 20.7474L40.116 6.30551H35.2416C35.1643 6.30703 35.0875 6.29269 35.016 6.26338C34.9444 6.23408 34.8797 6.1904 34.8257 6.1351C34.7375 6.03852 34.6751 5.92131 34.6443 5.79429V5.77299Z" fill="white"/>
</g>
<defs>
<clipPath id="clip0_2_1291">
<rect width="50.4" height="28" fill="white" transform="translate(0.0771484)"/>
</clipPath>
</defs>
</svg>
