<svg width="107" height="24" viewBox="0 0 107 24" fill="none" xmlns="http://www.w3.org/2000/svg">
<g clip-path="url(#clip0_2_1294)">
<path fill-rule="evenodd" clip-rule="evenodd" d="M9.47656 16.8C8.68091 16.8 7.91785 16.4839 7.35524 15.9213C6.79263 15.3587 6.47656 14.5956 6.47656 13.8V0H0.476562V13.8C0.476562 18.7704 4.50616 22.8 9.47656 22.8H16.0766V16.8H9.47656ZM27.4766 6C26.7674 6 26.0652 6.13968 25.4101 6.41105C24.7549 6.68243 24.1596 7.08019 23.6582 7.58162C23.1568 8.08306 22.759 8.67835 22.4876 9.33351C22.2162 9.98867 22.0766 10.6909 22.0766 11.4C22.0766 12.1091 22.2162 12.8113 22.4876 13.4665C22.759 14.1216 23.1568 14.7169 23.6582 15.2184C24.1596 15.7198 24.7549 16.1176 25.4101 16.389C26.0652 16.6603 26.7674 16.8 27.4766 16.8C28.9087 16.8 30.2822 16.2311 31.2949 15.2184C32.3076 14.2057 32.8766 12.8322 32.8766 11.4C32.8766 9.96783 32.3076 8.59432 31.2949 7.58162C30.2822 6.56893 28.9087 6 27.4766 6ZM16.0766 11.4C16.0766 5.1042 21.1808 0 27.4766 0C33.7724 0 38.8766 5.1042 38.8766 11.4C38.8766 17.6958 33.7724 22.8 27.4766 22.8C21.1808 22.8 16.0766 17.6958 16.0766 11.4ZM92.2766 6C90.8444 6 89.4709 6.56893 88.4582 7.58162C87.4455 8.59432 86.8766 9.96783 86.8766 11.4C86.8766 12.8322 87.4455 14.2057 88.4582 15.2184C89.4709 16.2311 90.8444 16.8 92.2766 16.8C93.7087 16.8 95.0823 16.2311 96.0949 15.2184C97.1076 14.2057 97.6766 12.8322 97.6766 11.4C97.6766 9.96783 97.1076 8.59432 96.0949 7.58162C95.0823 6.56893 93.7087 6 92.2766 6ZM80.8766 11.4C80.8766 5.1042 85.9808 0 92.2766 0C98.5724 0 103.677 5.1042 103.677 11.4C103.677 17.6958 98.5724 22.8 92.2766 22.8C85.9808 22.8 80.8766 17.6958 80.8766 11.4ZM51.4766 0C45.1808 0 40.0766 5.1042 40.0766 11.4C40.0766 17.6958 45.1808 22.8 51.4766 22.8H68.2766C69.458 22.8 70.5974 22.62 71.669 22.2864L74.8766 24L78.3374 17.5176C79.2165 15.8674 79.6764 14.0264 79.6766 12.1566V11.4C79.6766 5.1042 74.5724 0 68.2766 0H51.4766ZM73.6766 11.4C73.6766 9.96783 73.1076 8.59432 72.0949 7.58162C71.0822 6.56893 69.7087 6 68.2766 6H51.4766C50.7674 6 50.0652 6.13968 49.4101 6.41105C48.7549 6.68243 48.1596 7.08019 47.6582 7.58162C47.1568 8.08306 46.759 8.67835 46.4876 9.33351C46.2162 9.98867 46.0766 10.6909 46.0766 11.4C46.0766 12.1091 46.2162 12.8113 46.4876 13.4665C46.759 14.1216 47.1568 14.7169 47.6582 15.2184C48.1596 15.7198 48.7549 16.1176 49.4101 16.389C50.0652 16.6603 50.7674 16.8 51.4766 16.8H68.2766C69.7015 16.8 71.0687 16.2369 72.0802 15.2333C73.0917 14.2296 73.6655 12.8669 73.6766 11.442V11.4Z" fill="#001A0E"/>
<path d="M106.076 1.5C106.076 1.89782 105.918 2.27936 105.637 2.56066C105.356 2.84196 104.974 3 104.576 3C104.178 3 103.797 2.84196 103.516 2.56066C103.234 2.27936 103.076 1.89782 103.076 1.5C103.076 1.10218 103.234 0.720644 103.516 0.43934C103.797 0.158035 104.178 0 104.576 0C104.974 0 105.356 0.158035 105.637 0.43934C105.918 0.720644 106.076 1.10218 106.076 1.5Z" fill="#001A0E"/>
</g>
<defs>
<clipPath id="clip0_2_1294">
<rect width="105.6" height="24" fill="white" transform="translate(0.476562)"/>
</clipPath>
</defs>
</svg>
