<svg width="69" height="26" viewBox="0 0 69 26" fill="none" xmlns="http://www.w3.org/2000/svg">
<g clip-path="url(#clip0_2_1297)">
<path d="M31.3652 22.9047H33.1426V16.2005H31.3652V22.9047ZM31.3652 15.1549H33.1426V13.5605H31.3652V15.1549Z" fill="#001A0E"/>
<path d="M34.2881 25.1004H36.0654V22.1469H36.0916C36.4706 22.7219 37.0848 23.1009 38.0258 23.1009C39.7509 23.1009 40.9271 21.7287 40.9271 19.5592C40.9271 17.4682 39.7901 16.0176 38.0127 16.0176C37.0979 16.0176 36.4706 16.4489 36.0393 17.0369H36.0001V16.2006H34.2881V25.1004ZM37.6468 21.6241C36.5882 21.6241 36.0263 20.8269 36.0263 19.6115C36.0263 18.4092 36.4706 17.4551 37.5814 17.4551C38.6792 17.4551 39.1236 18.3438 39.1236 19.6115C39.1236 20.8792 38.5486 21.6241 37.6468 21.6241Z" fill="#001A0E"/>
<path d="M44.4725 23.1009C46.1453 23.1009 47.2953 22.2906 47.2953 20.9445C47.2953 19.3763 46.0538 19.0626 44.9299 18.8274C43.9758 18.6314 43.0872 18.579 43.0872 18.004C43.0872 17.5205 43.5446 17.2591 44.2373 17.2591C44.9952 17.2591 45.4526 17.5205 45.531 18.2393H47.1386C47.0078 16.8932 46.0277 16.0176 44.2634 16.0176C42.7343 16.0176 41.532 16.7102 41.532 18.1608C41.532 19.6246 42.7082 19.9513 43.9105 20.1865C44.8253 20.3695 45.6748 20.4348 45.6748 21.0752C45.6748 21.5457 45.2305 21.8463 44.4463 21.8463C43.6492 21.8463 43.1002 21.5065 42.9826 20.7354H41.3359C41.4405 22.1599 42.5252 23.1009 44.4725 23.1009Z" fill="#001A0E"/>
<path d="M54.0435 22.905V16.2007H52.2662V20.069C52.2662 20.9577 51.7565 21.585 50.9201 21.585C50.1621 21.585 49.8092 21.1537 49.8092 20.3696V16.2007H48.0449V20.6702C48.0449 22.1339 48.8813 23.088 50.3712 23.088C51.3121 23.088 51.8349 22.7351 52.2923 22.1208H52.3315V22.905H54.0435Z" fill="#001A0E"/>
<path d="M55.1934 22.9048H56.9708V19.0103C56.9708 18.1216 57.4543 17.5466 58.1731 17.5466C58.8265 17.5466 59.2055 17.9387 59.2055 18.6967V22.9048H60.9829V19.0103C60.9829 18.1216 61.4403 17.5466 62.1852 17.5466C62.8387 17.5466 63.2177 17.9387 63.2177 18.6967V22.9048H64.995V18.3961C64.995 16.9324 64.1978 16.0176 62.7864 16.0176C61.9369 16.0176 61.2312 16.4619 60.7738 17.1938H60.7477C60.4209 16.488 59.7413 16.0176 58.8919 16.0176C57.964 16.0176 57.3105 16.488 56.9446 17.1023H56.9054V16.2006H55.1934V22.9048Z" fill="#001A0E"/>
<path d="M31.3916 11.4218H33.169V2.07764H31.3916V11.4218Z" fill="#001A0E"/>
<path d="M37.5152 11.618C39.5931 11.618 41.0176 10.0758 41.0176 8.07632C41.0176 6.07679 39.5931 4.53467 37.5152 4.53467C35.4372 4.53467 34.0127 6.07679 34.0127 8.07632C34.0127 10.0758 35.4372 11.618 37.5152 11.618ZM37.5152 10.2588C36.4174 10.2588 35.8163 9.38321 35.8163 8.07632C35.8163 6.76943 36.4174 5.88076 37.5152 5.88076C38.5999 5.88076 39.2141 6.76943 39.2141 8.07632C39.2141 9.38321 38.5999 10.2588 37.5152 10.2588Z" fill="#001A0E"/>
<path d="M44.7969 13.709C45.7902 13.709 46.6527 13.4738 47.2146 12.951C47.7112 12.4936 48.0119 11.8532 48.0119 10.9123V4.71763H46.2998V5.42335H46.2737C45.8685 4.86138 45.2543 4.53467 44.4179 4.53467C42.719 4.53467 41.5166 5.81542 41.5166 7.81495C41.5166 9.84061 42.9803 11.0168 44.4702 11.0168C45.3197 11.0168 45.8294 10.677 46.2214 10.2327H46.2606V10.9645C46.2606 11.8793 45.7771 12.3629 44.7708 12.3629C43.9474 12.3629 43.5685 12.0362 43.4247 11.618H41.6604C41.8434 12.9249 42.9673 13.709 44.7969 13.709ZM44.7708 9.59231C43.856 9.59231 43.2548 8.9258 43.2548 7.78882C43.2548 6.66491 43.856 5.95917 44.7577 5.95917C45.8294 5.95917 46.3521 6.79556 46.3521 7.77576C46.3521 8.76896 45.8947 9.59231 44.7708 9.59231Z" fill="#001A0E"/>
<path d="M52.3325 11.618C54.4105 11.618 55.835 10.0758 55.835 8.07632C55.835 6.07679 54.4105 4.53467 52.3325 4.53467C50.2546 4.53467 48.8301 6.07679 48.8301 8.07632C48.8301 10.0758 50.2546 11.618 52.3325 11.618ZM52.3325 10.2588C51.2348 10.2588 50.6336 9.38321 50.6336 8.07632C50.6336 6.76943 51.2348 5.88076 52.3325 5.88076C53.4173 5.88076 54.0315 6.76943 54.0315 8.07632C54.0315 9.38321 53.4173 10.2588 52.3325 10.2588Z" fill="#001A0E"/>
<path d="M57.3926 8.86011H65.0769V7.33105H57.3926V8.86011Z" fill="#001A0E"/>
<path d="M65.6406 15.0617C65.6406 14.7609 65.8844 14.5171 66.1853 14.5171H67.2741C67.575 14.5171 67.8188 14.7609 67.8188 15.0617C67.8188 15.3623 67.575 15.6062 67.2741 15.6062H66.1853C65.8844 15.6062 65.6406 15.3623 65.6406 15.0617Z" fill="#001A0E"/>
<path fill-rule="evenodd" clip-rule="evenodd" d="M13.416 0C20.5957 0 26.416 5.82029 26.416 13C26.416 20.1797 20.5957 26 13.416 26C6.23631 26 0.416016 20.1797 0.416016 13C0.416016 5.82029 6.23631 0 13.416 0ZM12.9461 0.972784C11.4631 1.1815 10.0509 2.3732 8.95467 4.36631C8.63669 4.94444 8.34978 5.58315 8.09973 6.27279C9.59031 5.89821 11.2277 5.67737 12.9461 5.64322V0.972784ZM7.00103 6.58502C7.31193 5.60923 7.69231 4.71146 8.13125 3.91342C8.67465 2.92538 9.31958 2.07217 10.0462 1.41685C6.09493 2.5644 2.98041 5.67891 1.83287 9.6302C2.48818 8.90357 3.3414 8.25864 4.32944 7.71524C5.12748 7.27629 6.02524 6.89592 7.00103 6.58502ZM6.68877 7.68371C6.31422 9.17429 6.09339 10.8117 6.05923 12.5301H1.3888C1.59752 11.047 2.78922 9.63482 4.78233 8.53866C5.36046 8.22068 5.99917 7.93377 6.68877 7.68371ZM6.99921 12.5301C7.03802 10.6548 7.30796 8.89421 7.75464 7.33863C9.31022 6.89195 11.0709 6.62194 12.9461 6.58313V8.61302C12.2465 10.404 10.8197 11.8308 9.02858 12.5301H6.99921ZM6.05923 13.4699H1.3888C1.59752 14.953 2.78922 16.3651 4.78233 17.4613C5.36046 17.7793 5.99917 18.0662 6.68877 18.3163C6.31422 16.8257 6.09339 15.1883 6.05923 13.4699ZM7.75464 18.6614C7.30796 17.1058 7.03802 15.3452 6.99921 13.4699H9.02858C10.8197 14.1692 12.2466 15.596 12.9461 17.387V19.4169C11.0709 19.3781 9.31022 19.108 7.75464 18.6614ZM7.00103 19.415C6.02524 19.1041 5.12748 18.7237 4.32944 18.2848C3.3414 17.7414 2.48818 17.0964 1.83287 16.3698C2.98041 20.3211 6.09493 23.4356 10.0462 24.5831C9.31958 23.9278 8.67465 23.0746 8.13125 22.0865C7.69231 21.2885 7.31193 20.3908 7.00103 19.415ZM12.9461 25.0272C11.4631 24.8185 10.0509 23.6268 8.95467 21.6337C8.63669 21.0556 8.34978 20.4168 8.09973 19.7272C9.59031 20.1018 11.2277 20.3226 12.9461 20.3568V25.0272ZM16.7858 24.5831C17.5124 23.9278 18.1574 23.0746 18.7008 22.0865C19.1397 21.2885 19.5201 20.3908 19.831 19.415C20.8068 19.1041 21.7046 18.7237 22.5026 18.2848C23.4906 17.7414 24.3439 17.0964 24.9991 16.3698C23.8516 20.3211 20.7371 23.4356 16.7858 24.5831ZM18.7323 19.7272C18.4822 20.4168 18.1953 21.0556 17.8774 21.6337C16.7812 23.6268 15.369 24.8185 13.8859 25.0272V20.3568C15.6043 20.3226 17.2417 20.1018 18.7323 19.7272ZM20.1433 18.3163C20.8328 18.0662 21.4716 17.7793 22.0497 17.4613C24.0428 16.3651 25.2345 14.953 25.4432 13.4699H20.7728C20.7387 15.1883 20.5178 16.8257 20.1433 18.3163ZM19.8329 13.4699C19.7941 15.3452 19.5241 17.1058 19.0774 18.6614C17.5218 19.108 15.7612 19.3781 13.8859 19.4169V17.3885C14.5852 15.5968 16.0124 14.1694 17.804 13.4699H19.8329ZM20.7728 12.5301H25.4432C25.2345 11.047 24.0428 9.63482 22.0497 8.53866C21.4716 8.22068 20.8328 7.93377 20.1433 7.68371C20.5178 9.17429 20.7387 10.8117 20.7728 12.5301ZM19.0774 7.33863C19.5241 8.89421 19.7941 10.6548 19.8329 12.5301H17.804C16.0124 11.8306 14.5852 10.4032 13.8859 8.61152V6.58313C15.7612 6.62194 17.5218 6.89195 19.0774 7.33863ZM19.831 6.58502C20.8068 6.89592 21.7046 7.27629 22.5026 7.71524C23.4906 8.25864 24.3439 8.90357 24.9991 9.6302C23.8516 5.67891 20.7371 2.5644 16.7858 1.41685C17.5124 2.07217 18.1574 2.92538 18.7008 3.91342C19.1397 4.71146 19.5201 5.60923 19.831 6.58502ZM13.8859 0.972784C15.369 1.1815 16.7812 2.3732 17.8774 4.36631C18.1953 4.94445 18.4822 5.58315 18.7323 6.27279C17.2417 5.89821 15.6043 5.67737 13.8859 5.64322V0.972784Z" fill="#001A0E"/>
</g>
<defs>
<clipPath id="clip0_2_1297">
<rect width="68.25" height="26" fill="white" transform="translate(0.0771484)"/>
</clipPath>
</defs>
</svg>
