<svg width="15" height="14" viewBox="0 0 15 14" fill="none" xmlns="http://www.w3.org/2000/svg">
<path d="M4 4L6 5.5L4 7M7 7H9M3 12.5H12C12.3978 12.5 12.7794 12.342 13.0607 12.0607C13.342 11.7794 13.5 11.3978 13.5 11V3C13.5 2.60218 13.342 2.22064 13.0607 1.93934C12.7794 1.65804 12.3978 1.5 12 1.5H3C2.60218 1.5 2.22064 1.65804 1.93934 1.93934C1.65804 2.22064 1.5 2.60218 1.5 3V11C1.5 11.3978 1.65804 11.7794 1.93934 12.0607C2.22064 12.342 2.60218 12.5 3 12.5Z" stroke="#003119" stroke-width="1.25" stroke-linecap="round" stroke-linejoin="round"/>
</svg>
